# xmcd
#
# Track frame offsets:
#	150
#	16670
#	29667
#	45182
#	56490
#	71912
#	82227
#	98257
#	111252
#	123700
#	145502
#	159807
#
# Disc length: 2388 seconds
#
# Revision: 1
# Processed by: cddbd v1.5.2PL0 Copyright (c) Steve Scherf et al.
# Submitted via: audiograbber 1.83.01
#
DISCID=9309520c
DTITLE=Alan Spencer Hale - Once In A Lifetime Alan Spencer Hale
DYEAR=1996
DGENRE=Country
TTITLE0=Once In A Lifetime
TTITLE1=Ain´t Man Enough
TTITLE2=Come On In
TTITLE3=Happines
TTITLE4=No Me At All
TTITLE5=Lady Lied
TTITLE6=Forever Gone
TTITLE7=Can´t Get There
TTITLE8=Better Or Worse
TTITLE9=I´ll Be True
TTITLE10=Slippin Away
TTITLE11=The Weight
EXTD=
EXTT0=
EXTT1=
EXTT2=
EXTT3=
EXTT4=
EXTT5=
EXTT6=
EXTT7=
EXTT8=
EXTT9=
EXTT10=
EXTT11=
PLAYORDER=
